<svg width="64" height="64" xmlns="http://www.w3.org/2000/svg" xml:space="preserve" enable-background="new 0 0 64 64" version="1.1">

 <g>
  <title>Layer 1</title>
  <path id="svg_2" d="m31.285,4.882c-1.134,0 -2.051,0.918 -2.051,2.05l0,32l-5.343,-5.344c-0.802,-0.8 -2.099,-0.8 -2.899,0c-0.801,0.801 -0.801,2.099 0,2.899l8.843,8.843c0.4,0.4 0.925,0.6 1.45,0.6c0.523,0 1.049,-0.2 1.448,-0.6l8.844,-8.843c0.801,-0.801 0.801,-2.099 0,-2.899c-0.801,-0.8 -2.099,-0.8 -2.898,0l-5.344,5.344l0,-32c0,-1.132 -0.917,-2.05 -2.05,-2.05z" fill="#3fa9f5"/>
  <path id="svg_3" d="m23.429,23.003c-1.658,-0.481 -3.38,-0.725 -5.118,-0.725c-10.097,0 -18.311,8.215 -18.311,18.312c0,9.703 7.592,17.646 17.146,18.252c0.1,0.015 0.188,0.059 0.291,0.059l33.219,0c0.046,0 0.084,-0.023 0.129,-0.026c0.044,0.003 0.084,0.026 0.128,0.026c7.151,0 12.97,-6.015 12.97,-13.408c0,-7.293 -5.933,-13.228 -13.227,-13.228c-0.02,0 -0.035,0.011 -0.056,0.011c-1.642,-4.593 -6.021,-7.895 -11.172,-7.895c-1.134,0 -2.05,0.918 -2.05,2.05s0.916,2.05 2.05,2.05c4.284,0 7.772,3.486 7.772,7.773c0,1.132 0.917,2.05 2.051,2.05c1.07,0 1.923,-0.831 2.014,-1.878c4.745,0.319 8.517,4.241 8.517,9.065c0,5.133 -3.978,9.308 -8.869,9.308c-0.044,0 -0.084,0.023 -0.128,0.026c-0.045,-0.003 -0.083,-0.026 -0.129,-0.026l-32.345,0c-7.836,0 -14.21,-6.375 -14.21,-14.211s6.374,-14.211 14.21,-14.211c1.352,0 2.688,0.189 3.975,0.562c1.087,0.314 2.225,-0.312 2.54,-1.398c0.317,-1.085 -0.31,-2.223 -1.397,-2.538z" fill="#3fa9f5"/>
  <g id="comment"/>
  <g id="map-marker"/>
  <g id="earth"/>
  <g id="heart"/>
  <g id="twitter"/>
  <g id="bucket"/>
  <g id="paperclip"/>
  <g id="undo"/>
  <g id="redo"/>
  <g id="chevron-left"/>
  <g id="chevron-right"/>
  <g id="cross"/>
  <g id="search"/>
  <g id="hamburger"/>
 </g>
</svg>