<svg width="64" height="64" xmlns="http://www.w3.org/2000/svg" xml:space="preserve" enable-background="new 0 0 64 64" version="1.1">
 <g>
  <title>Layer 1</title>
  <g stroke="null" opacity="0.98" id="svg_1">
   <path stroke="null" id="svg_2" d="m31.44627,10.4905c-0.95649,0 -1.72994,0.73107 -1.72994,1.63255l0,25.48378l-4.50663,-4.25579c-0.67646,-0.63709 -1.77043,-0.63709 -2.4452,0c-0.67561,0.63789 -0.67561,1.67158 0,2.30867l7.45875,7.04228c0.33739,0.31855 0.7802,0.47782 1.22302,0.47782c0.44113,0 0.88479,-0.15927 1.22134,-0.47782l7.45959,-7.04228c0.67561,-0.63789 0.67561,-1.67158 0,-2.30867c-0.67561,-0.63709 -1.77043,-0.63709 -2.44436,0l-4.50747,4.25579l0,-25.48378c0,-0.90149 -0.77346,-1.63255 -1.7291,-1.63255z" fill="#3fa9f5"/>
   <path stroke="null" id="svg_3" d="m24.82002,24.92148c-1.39846,-0.38305 -2.85091,-0.57737 -4.31685,-0.57737c-8.51645,0 -15.44467,6.54216 -15.44467,14.58309c0,7.72716 6.40358,14.05271 14.46203,14.53531c0.08435,0.01195 0.15857,0.04699 0.24545,0.04699l28.01902,0c0.0388,0 0.07085,-0.01832 0.10881,-0.02071c0.03711,0.00239 0.07085,0.02071 0.10796,0.02071c6.03161,0 10.93973,-4.79015 10.93973,-10.6777c0,-5.80791 -5.00427,-10.53436 -11.1565,-10.53436c-0.01687,0 -0.02952,0.00876 -0.04723,0.00876c-1.38497,-3.65772 -5.0785,-6.28733 -9.42318,-6.28733c-0.95649,0 -1.7291,0.73107 -1.7291,1.63255s0.77261,1.63255 1.7291,1.63255c3.6134,0 6.5554,2.77614 6.5554,6.19017c0,0.90149 0.77346,1.63255 1.72994,1.63255c0.90251,0 1.62198,-0.66178 1.69874,-1.49558c4.00224,0.25404 7.18378,3.3774 7.18378,7.21908c0,4.08776 -3.3553,7.41259 -7.48068,7.41259c-0.03711,0 -0.07085,0.01832 -0.10796,0.02071c-0.03796,-0.00239 -0.07001,-0.02071 -0.10881,-0.02071l-27.28184,0c-6.60938,0 -11.98562,-5.07685 -11.98562,-11.31719s5.37624,-11.31719 11.98562,-11.31719c1.14036,0 2.26723,0.15051 3.35277,0.44756c0.91685,0.25006 1.87671,-0.24847 2.1424,-1.11332c0.26738,-0.86406 -0.26147,-1.77033 -1.17832,-2.02118z" fill="#3fa9f5"/>
   <g stroke="null" id="comment"/>
   <g stroke="null" id="map-marker"/>
   <g stroke="null" id="earth"/>
   <g stroke="null" id="heart"/>
   <g stroke="null" id="twitter"/>
   <g stroke="null" id="bucket"/>
   <g stroke="null" id="paperclip"/>
   <g stroke="null" id="undo"/>
   <g stroke="null" id="redo"/>
   <g stroke="null" id="chevron-left"/>
   <g stroke="null" id="chevron-right"/>
   <g stroke="null" id="cross"/>
   <g stroke="null" id="search"/>
   <g stroke="null" id="hamburger"/>
  </g>
 </g>

</svg>